<svg xmlns="http://www.w3.org/2000/svg" viewBox="0 0 1280 360" width="1280" height="360" font-family="-apple-system,BlinkMacSystemFont,Segoe UI,Helvetica,Arial,sans-serif">
  <defs>
    <linearGradient id="sky" x1="0" y1="0" x2="0" y2="1"><stop offset="0" stop-color="#16323f"/><stop offset="0.55" stop-color="#1a3a4a"/><stop offset="1" stop-color="#2d6a7a"/></linearGradient>
    <linearGradient id="sea" x1="0" y1="0" x2="0" y2="1"><stop offset="0" stop-color="#2d6a7a"/><stop offset="1" stop-color="#1a3a4a"/></linearGradient>
    <linearGradient id="glow" x1="0" y1="0" x2="0" y2="1"><stop offset="0" stop-color="#f5f0e8" stop-opacity="0.9"/><stop offset="1" stop-color="#89b4c4" stop-opacity="0"/></linearGradient>
  </defs>
  <rect width="1280" height="360" fill="url(#sky)"/>
  <ellipse cx="980" cy="232" rx="240" ry="120" fill="url(#glow)" opacity="0.5"/>
  <circle cx="980" cy="226" r="34" fill="#f5f0e8" opacity="0.92"/>
  <g fill="#f5f0e8" opacity="0.7"><circle cx="120" cy="54" r="1.6"/><circle cx="230" cy="92" r="1.2"/><circle cx="330" cy="44" r="1.5"/><circle cx="470" cy="78" r="1.1"/><circle cx="600" cy="40" r="1.6"/><circle cx="720" cy="86" r="1.2"/><circle cx="1140" cy="58" r="1.5"/><circle cx="1205" cy="100" r="1.2"/><circle cx="60" cy="120" r="1.2"/></g>
  <path d="M0 232 C 160 196, 300 214, 440 200 S 760 168, 920 196 S 1180 210, 1280 192 L1280 360 L0 360 Z" fill="#3a5566" opacity="0.85"/>
  <path d="M0 262 C 180 232, 360 256, 540 244 S 880 214, 1060 248 S 1240 262, 1280 250 L1280 360 L0 360 Z" fill="#5b5169" opacity="0.92"/>
  <path d="M0 300 C 220 280, 430 300, 640 290 S 1020 268, 1280 296 L1280 360 L0 360 Z" fill="#3d3226"/>
  <rect y="318" width="1280" height="42" fill="url(#sea)"/>
  <g stroke="#89b4c4" stroke-opacity="0.35" stroke-width="2"><line x1="60" y1="332" x2="150" y2="332"/><line x1="240" y1="344" x2="360" y2="344"/><line x1="520" y1="330" x2="610" y2="330"/><line x1="760" y1="346" x2="880" y2="346"/><line x1="1000" y1="334" x2="1090" y2="334"/></g>
  <g stroke="#f5f0e8" stroke-width="2.4" stroke-linecap="round" fill="none" opacity="0.85"><path d="M150 96 q 10 -10 20 0 q 10 -10 20 0"/><path d="M210 130 q 8 -8 16 0 q 8 -8 16 0"/><path d="M118 150 q 7 -7 14 0 q 7 -7 14 0"/></g>
  <text x="80" y="170" font-size="92" font-weight="700" fill="#f5f0e8" letter-spacing="1">Giftedx</text>
  <text x="84" y="212" font-size="25" font-weight="500" fill="#89b4c4" letter-spacing="6">SYSTEMS &#183; GAMES &#183; A WEE BIT OF SCOTLAND</text>
</svg>
